# xmcd
#
# Track frame offsets:
#	150
#	13769
#	26902
#	39132
#	50964
#	63345
#	74644
#	87418
#	99330
#	111861
#	123485
#	135658
#	147425
#	159710
#	171920
#	184669
#
# Disc length: 2639 seconds
#
# Revision: 0
# Processed by: cddbd v1.5.2PL0 Copyright (c) Steve Scherf et al.
# Submitted via: EasyCDDAExtractor 16.0.1.1
#
DISCID=eb0a4d10
DTITLE=Bobby Bland - Woke Up Screaming!
DYEAR=1900
DGENRE=Rhythm and Blues
TTITLE0=No Blow No Show
TTITLE1=Wise Man Blues
TTITLE2=Army Blues
TTITLE3=Lost Lover Blues
TTITLE4=It's My Life Baby
TTITLE5=Honey Bee
TTITLE6=Time Out
TTITLE7=Little Boy Blue
TTITLE8=Woke Up Screamung
TTITLE9=You've Got Bad Intentions
TTITLE10=I Can't Put You Down Baby
TTITLE11=I Smell Trouble
TTITLE12=Don't Want No Woman
TTITLE13=I Don't Believe
TTITLE14=I Learned My Lesson
TTITLE15=Further Up The Road
EXTD=
EXTT0=
EXTT1=
EXTT2=
EXTT3=
EXTT4=
EXTT5=
EXTT6=
EXTT7=
EXTT8=
EXTT9=
EXTT10=
EXTT11=
EXTT12=
EXTT13=
EXTT14=
EXTT15=
PLAYORDER=
